<?xml version="1.0" encoding="UTF-8" standalone="no"?>
<!-- Created with Inkscape (http://www.inkscape.org/) -->

<svg
   xmlns:dc="http://purl.org/dc/elements/1.1/"
   xmlns:cc="http://creativecommons.org/ns#"
   xmlns:rdf="http://www.w3.org/1999/02/22-rdf-syntax-ns#"
   xmlns:svg="http://www.w3.org/2000/svg"
   xmlns="http://www.w3.org/2000/svg"
   xmlns:sodipodi="http://sodipodi.sourceforge.net/DTD/sodipodi-0.dtd"
   xmlns:inkscape="http://www.inkscape.org/namespaces/inkscape"
   width="210mm"
   height="297mm"
   viewBox="0 0 210 297"
   version="1.1"
   id="svg8"
   inkscape:version="0.92.3 (2405546, 2018-03-11)"
   sodipodi:docname="Edwin.svg"
   inkscape:export-filename="/home/edaagapu/Tendencias/Tendencias/libro/img/logo.png"
   inkscape:export-xdpi="96"
   inkscape:export-ydpi="96">
  <defs
     id="defs2" />
  <sodipodi:namedview
     id="base"
     pagecolor="#ffffff"
     bordercolor="#666666"
     borderopacity="1.0"
     inkscape:pageopacity="0.0"
     inkscape:pageshadow="2"
     inkscape:zoom="0.98994949"
     inkscape:cx="315.59339"
     inkscape:cy="700.62104"
     inkscape:document-units="mm"
     inkscape:current-layer="layer1"
     showgrid="false"
     inkscape:window-width="1366"
     inkscape:window-height="715"
     inkscape:window-x="0"
     inkscape:window-y="27"
     inkscape:window-maximized="1" />
  <metadata
     id="metadata5">
    <rdf:RDF>
      <cc:Work
         rdf:about="">
        <dc:format>image/svg+xml</dc:format>
        <dc:type
           rdf:resource="http://purl.org/dc/dcmitype/StillImage" />
        <dc:title />
      </cc:Work>
    </rdf:RDF>
  </metadata>
  <g
     inkscape:label="Capa 1"
     inkscape:groupmode="layer"
     id="layer1">
    <g
       id="g4537"
       style="fill:#0013f5;fill-opacity:0.15384617"
       transform="matrix(1.4940268,0,0,1.419367,-15.805172,-41.682447)">
      <path
         style="fill:#0013f5;fill-opacity:0.15384617;stroke-width:0.26458332"
         d="M 81.014884,109.10267 C 69.46353,107.29708 60.906548,97.406165 60.906548,85.859685 c 0,-9.56262 5.50153,-17.87717 14.308709,-21.62496 6.560314,-2.791659 15.173932,-2.307506 21.122652,1.18726 0.92757,0.54493 0.73613,0.95059 -0.20971,0.44439 -0.85483,-0.45749 -0.94982,-0.32316 -0.19266,0.27243 0.38749,0.3048 0.93601,1.00792 1.21893,1.56249 0.64485,1.26401 1.52877,1.96676 3.151971,2.50589 0.69846,0.232 1.54592,0.71558 1.88323,1.07463 0.76595,0.81532 1.16872,0.84577 0.76065,0.0575 -0.27437,-0.52999 -0.22325,-0.51571 0.46587,0.13008 1.24467,1.1664 3.17362,4.63085 4.08926,7.3444 0.7618,2.25767 0.85986,2.90408 0.96324,6.35 0.088,2.93454 0.014,4.27187 -0.31493,5.68854 -1.93328,8.32642 -7.63999,14.641605 -15.629501,17.296015 -4.02457,1.33711 -7.31501,1.60994 -11.509375,0.95432 z m 13.792815,-15.212645 3.04613,-3.70919 0.58305,-6.14654 c 0.70518,-7.43396 0.71436,-8.1853 0.10665,-8.7237 -0.35205,-0.31189 -2.81333,-0.63879 -10.26917,-1.36392 -5.393384,-0.52454 -10.05339,-0.95371 -10.355577,-0.95371 -0.30219,0 -0.815317,0.21528 -1.140254,0.47841 -0.544707,0.44107 -0.639137,0.96975 -1.209934,6.77386 -0.340527,3.4625 -0.733934,6.43214 -0.874264,6.59919 -0.14032,0.16706 -1.435361,1.31578 -2.877865,2.5527 -1.442491,1.23693 -2.833042,2.52616 -3.090102,2.86495 -0.625407,0.82427 -0.852514,2.54898 -0.375577,2.85212 0.278187,0.1768 20.249423,2.32281 22.866083,2.45707 0.39443,0.0202 1.38507,-0.99535 3.59083,-3.68124 z m -7.90584,0.0782 c -1.00004,-0.1241 -1.19732,-0.93231 -0.33962,-1.39134 0.59008,-0.31579 2.57746,-0.0793 2.83498,0.33743 0.19079,0.3087 -0.87278,1.26777 -1.33404,1.20297 -0.16578,-0.0233 -0.68837,-0.0904 -1.16132,-0.14906 z m -4.828641,-0.59887 c -0.306297,-0.19525 -0.330397,-0.36039 -0.10561,-0.72355 0.503737,-0.81382 3.280611,-0.76782 3.280611,0.0543 0,0.79867 -2.233447,1.26943 -3.175001,0.6692 z m -4.411576,-0.68927 c -0.288167,-0.75095 0.653437,-1.22672 2.030331,-1.02588 1.422851,0.20755 1.520291,0.28054 1.154011,0.86447 -0.412047,0.65688 -2.944942,0.78528 -3.184342,0.16141 z m -3.856656,-0.0258 c -0.536427,-0.14018 -0.602107,-0.63103 -0.14552,-1.08761 0.499947,-0.49994 2.838815,-0.40947 3.041082,0.11763 0.3295,0.85867 -1.270501,1.39466 -2.895562,0.96998 z m 14.491903,-1.13088 c -0.0867,-0.14021 0.0849,-0.4974 0.38126,-0.79375 0.62947,-0.62947 2.04738,-0.71605 2.79336,-0.17057 0.42789,0.31287 0.45051,0.43222 0.15047,0.79375 -0.39545,0.47649 -3.05181,0.61275 -3.32509,0.17057 z m -3.77628,-0.18488 c -0.47087,-0.19 -0.4098,-1.06073 0.0878,-1.25167 0.69116,-0.26522 2.71259,-0.18109 2.89908,0.12066 0.32771,0.53023 -0.7031,1.30735 -1.70496,1.28535 -0.52314,-0.0115 -1.1,-0.0809 -1.2819,-0.15434 z m -4.464329,-0.74025 c -0.26549,-0.69187 0.409817,-1.2015 1.586311,-1.19714 1.431511,0.005 1.986948,0.34702 1.594001,0.98061 -0.402357,0.64875 -2.947945,0.82207 -3.180312,0.21653 z m -3.737749,-0.065 c -1.542791,-0.29716 -0.0274,-1.6825 1.607821,-1.46983 1.164944,0.15152 1.526831,0.71859 0.806604,1.26397 -0.487467,0.36914 -1.235541,0.43292 -2.414425,0.20586 z m 9.194268,-2.50881 c -4.292865,-0.43418 -7.905067,-0.88502 -8.027124,-1.00187 -0.19175,-0.18358 0.456597,-9.3928 0.778154,-11.05312 0.0982,-0.50695 0.28145,-0.59419 1.234744,-0.58776 1.921838,0.013 16.222306,1.48032 16.579756,1.70123 0.24167,0.14937 0.28377,0.52397 0.1462,1.30101 -0.10626,0.60019 -0.38698,3.17484 -0.62382,5.72146 l -0.43062,4.63021 -0.92604,0.0391 c -0.50932,0.0215 -4.43838,-0.31611 -8.73125,-0.75028 z m 4.84771,-3.82787 c 0.0954,-0.0954 -0.36103,-0.79897 -1.01423,-1.56356 -0.65321,-0.76458 -1.18765,-1.47709 -1.18765,-1.58336 0,-0.10627 0.20278,-0.34149 0.45062,-0.52272 0.39501,-0.28883 0.21203,-0.44966 -1.48232,-1.30292 -1.06312,-0.53538 -1.98291,-0.92346 -2.04397,-0.86239 -0.12394,0.12393 0.58935,3.34563 0.78376,3.54005 0.068,0.068 0.36235,-0.0253 0.65402,-0.20746 0.47728,-0.29807 0.66772,-0.18084 1.9044,1.17229 1.3681,1.49692 1.60542,1.66001 1.93537,1.33007 z m 4.29599,-19.0173 c -0.28247,-0.21366 -0.63966,-0.38425 -0.79375,-0.37909 -0.15409,0.005 0.0175,0.17953 0.3813,0.3875 0.85705,0.48994 1.0657,0.48568 0.41245,-0.008 z"
         id="path3904"
         inkscape:connector-curvature="0" />
      <text
         transform="matrix(0.86623702,0.01244444,0.85271261,1.1666686,0,0)"
         id="text3920"
         y="102.74393"
         x="-37.065308"
         style="font-style:normal;font-variant:normal;font-weight:normal;font-stretch:normal;font-size:26.80721283px;line-height:1.25;font-family:Karumbi;-inkscape-font-specification:'Karumbi, Normal';font-variant-ligatures:normal;font-variant-caps:normal;font-variant-numeric:normal;font-feature-settings:normal;text-align:start;letter-spacing:0px;word-spacing:0px;writing-mode:lr-tb;text-anchor:start;fill:#0013f5;fill-opacity:0.15384617;stroke:none;stroke-width:0.4188627"
         xml:space="preserve"><tspan
           style="font-style:normal;font-variant:normal;font-weight:normal;font-stretch:normal;font-size:26.80721283px;font-family:Karumbi;-inkscape-font-specification:'Karumbi, Normal';font-variant-ligatures:normal;font-variant-caps:normal;font-variant-numeric:normal;font-feature-settings:normal;text-align:start;writing-mode:lr-tb;text-anchor:start;fill:#0013f5;fill-opacity:0.15384617;stroke-width:0.4188627"
           y="102.74393"
           x="-37.065308"
           id="tspan3918"
           sodipodi:role="line">SOFBORe</tspan></text>
      <text
         transform="scale(1.0686605,0.93575087)"
         id="text3924"
         y="141.73564"
         x="44.716789"
         style="font-style:normal;font-variant:normal;font-weight:normal;font-stretch:normal;font-size:6.78599453px;line-height:1.25;font-family:KacstQurn;-inkscape-font-specification:'KacstQurn, Normal';font-variant-ligatures:normal;font-variant-caps:normal;font-variant-numeric:normal;font-feature-settings:normal;text-align:start;letter-spacing:0px;word-spacing:0px;writing-mode:lr-tb;text-anchor:start;fill:#0013f5;fill-opacity:0.15384617;stroke:none;stroke-width:0.28274974"
         xml:space="preserve"><tspan
           style="font-style:normal;font-variant:normal;font-weight:normal;font-stretch:normal;font-size:6.78599453px;font-family:KacstQurn;-inkscape-font-specification:'KacstQurn, Normal';font-variant-ligatures:normal;font-variant-caps:normal;font-variant-numeric:normal;font-feature-settings:normal;text-align:start;writing-mode:lr-tb;text-anchor:start;fill:#0013f5;fill-opacity:0.15384617;stroke-width:0.28274974"
           y="141.73564"
           x="44.716789"
           id="tspan3922"
           sodipodi:role="line">&quot;Software de Calidad,</tspan><tspan
           id="tspan3926"
           style="font-style:normal;font-variant:normal;font-weight:normal;font-stretch:normal;font-size:6.78599453px;font-family:KacstQurn;-inkscape-font-specification:'KacstQurn, Normal';font-variant-ligatures:normal;font-variant-caps:normal;font-variant-numeric:normal;font-feature-settings:normal;text-align:start;writing-mode:lr-tb;text-anchor:start;fill:#0013f5;fill-opacity:0.15384617;stroke-width:0.28274974"
           y="150.43863"
           x="44.716789"
           sodipodi:role="line">a un precio sin igual&quot;</tspan></text>
    </g>
  </g>
</svg>
